<svg width="1440" height="337" viewBox="0 0 1440 337" fill="none" xmlns="http://www.w3.org/2000/svg">
<g filter="url(#filter0_d_45_98)">
<path d="M435.171 136.608C450.749 123.04 457.949 120.644 462.139 145.75C461.953 169.056 459.118 181.161 440.08 197.832C429.69 207.383 425.822 206.038 422.545 191.285C417.341 170.847 419.82 158.899 435.171 136.608Z" fill="url(#paint0_radial_45_98)" stroke="#C6F2E1"/>
<path d="M449 111.239C455.899 112.478 459.489 113.666 465.433 116.585C465.937 126.76 465.741 132.769 462.619 145.24C449.901 145.596 443.879 143.497 434.789 136.337C438.225 126.179 441.018 120.63 449 111.239Z" fill="#2B2A29" stroke="#2B2A29"/>
</g>
<g filter="url(#filter1_d_45_98)">
<path d="M228.171 121.608C243.749 108.04 250.949 105.644 255.139 130.75C254.953 154.056 252.118 166.161 233.08 182.832C222.69 192.383 218.822 191.038 215.545 176.285C210.341 155.847 212.82 143.899 228.171 121.608Z" fill="url(#paint1_radial_45_98)" stroke="#DEC9BD"/>
<path d="M242 96.2388C248.899 97.4776 252.489 98.6659 258.433 101.585C258.937 111.76 258.741 117.769 255.619 130.24C242.901 130.596 236.879 128.497 227.789 121.337C231.225 111.179 234.018 105.63 242 96.2388Z" fill="#2B2A29" stroke="#2B2A29"/>
</g>
<g filter="url(#filter2_d_45_98)">
<path d="M322.741 119.332C330.126 100.039 335.358 94.5435 350.845 114.743C361.622 135.409 364.803 147.428 355.819 171.086C351.129 184.396 347.082 185.025 337.263 173.537C323.073 157.935 319.653 146.221 322.741 119.332Z" fill="url(#paint2_radial_45_98)" stroke="#1D69C6"/>
<path d="M323.042 90.4403C329.715 88.2954 333.443 87.6591 340.061 87.4455C345.284 96.1936 347.931 101.591 351.029 114.068C339.968 120.353 333.665 121.326 322.278 119.273C320.542 108.69 320.403 102.48 323.042 90.4403Z" fill="#2B2A29" stroke="#2B2A29"/>
</g>
<g filter="url(#filter3_d_45_98)">
<path d="M582.061 120.421C601.069 112.331 608.657 112.277 604.884 137.449C597.505 159.557 591.069 170.194 567.81 180.166C554.978 186.038 551.714 183.564 553.156 168.52C554.523 147.475 560.574 136.877 582.061 120.421Z" fill="url(#paint3_radial_45_98)" stroke="#D60E1E"/>
<path d="M603.053 100.567C609.231 103.877 612.278 106.116 617.03 110.729C614.365 120.563 612.321 126.216 605.498 137.112C593.293 133.521 588.214 129.663 581.781 120.046C588.188 111.446 592.559 107.032 603.053 100.567Z" fill="#2B2A29" stroke="#2B2A29"/>
</g>
<g filter="url(#filter4_d_45_98)">
<path d="M669.153 117.727C683.227 102.605 690.137 99.4699 696.929 124C699.18 147.199 697.626 159.534 680.435 178.103C671.1 188.687 667.113 187.754 662.311 173.425C655 153.643 656.217 141.501 669.153 117.727Z" fill="url(#paint4_radial_45_98)" stroke="#F3DC7E"/>
<path d="M680.255 91.0517C687.245 91.5627 690.94 92.3692 697.157 94.6505C698.722 104.718 699.155 110.714 697.353 123.443C684.743 125.127 678.534 123.668 668.745 117.498C671.1 107.036 673.298 101.226 680.255 91.0517Z" fill="#2B2A29" stroke="#2B2A29"/>
</g>
<g filter="url(#filter5_d_45_98)">
<path d="M733.243 134.762C733.583 114.107 736.62 107.153 758.082 120.838C775.277 136.572 782.376 146.778 782.026 172.081C782.171 186.193 778.584 188.168 765.427 180.732C746.757 170.923 739.536 161.086 733.243 134.762Z" fill="url(#paint5_radial_45_98)" stroke="#D60E1E"/>
<path d="M723.643 107.51C729.18 103.212 732.466 101.339 738.612 98.875C746.511 105.309 750.845 109.475 758.024 120.141C749.779 129.83 744.189 132.9 732.786 134.865C727.536 125.514 725.281 119.726 723.643 107.51Z" fill="#2B2A29" stroke="#2B2A29"/>
</g>
<g filter="url(#filter6_d_45_98)">
<path d="M1360.27 160.608C1344.7 147.04 1337.5 144.644 1333.31 169.75C1333.49 193.056 1336.33 205.161 1355.36 221.832C1365.75 231.383 1369.62 230.038 1372.9 215.285C1378.1 194.847 1375.62 182.899 1360.27 160.608Z" fill="url(#paint6_radial_45_98)" stroke="#C6F2E1"/>
<path d="M1346.44 135.239C1339.55 136.478 1335.96 137.666 1330.01 140.585C1329.51 150.76 1329.7 156.769 1332.83 169.24C1345.54 169.596 1351.57 167.497 1360.66 160.337C1357.22 150.179 1354.43 144.63 1346.44 135.239Z" fill="#2B2A29" stroke="#2B2A29"/>
</g>
<g filter="url(#filter7_d_45_98)">
<path d="M1425.27 80.6077C1409.7 67.0398 1402.5 64.6438 1398.31 89.7497C1398.49 113.056 1401.33 125.161 1420.36 141.832C1430.75 151.383 1434.62 150.038 1437.9 135.285C1443.1 114.847 1440.62 102.899 1425.27 80.6077Z" fill="url(#paint7_radial_45_98)" stroke="#DEC9BD"/>
<path d="M1411.44 55.2388C1404.55 56.4776 1400.96 57.6659 1395.01 60.5845C1394.51 70.7604 1394.7 76.7687 1397.83 89.2398C1410.54 89.5962 1416.57 87.4967 1425.66 80.3375C1422.22 70.1787 1419.43 64.63 1411.44 55.2388Z" fill="#2B2A29" stroke="#2B2A29"/>
</g>
<g filter="url(#filter8_d_45_98)">
<path d="M114.274 149.608C98.6956 136.04 91.4959 133.644 87.3056 158.75C87.4919 182.056 90.3262 194.161 109.365 210.832C119.755 220.383 123.623 219.038 126.9 204.285C132.103 183.847 129.624 171.899 114.274 149.608Z" fill="url(#paint8_radial_45_98)" stroke="#C6F2E1"/>
<path d="M100.444 124.239C93.5455 125.478 89.9555 126.666 84.0113 129.585C83.5072 139.76 83.7034 145.769 86.8259 158.24C99.543 158.596 105.565 156.497 114.655 149.337C111.22 139.179 108.427 133.63 100.444 124.239Z" fill="#2B2A29" stroke="#2B2A29"/>
</g>
<g filter="url(#filter9_d_45_98)">
<path d="M47.2738 214.608C31.6956 201.04 24.4959 198.644 20.3056 223.75C20.4919 247.056 23.3262 259.161 42.3647 275.832C52.7545 285.383 56.6227 284.038 59.8999 269.285C65.1033 248.847 62.6241 236.899 47.2738 214.608Z" fill="url(#paint9_radial_45_98)" stroke="#DEC9BD"/>
<path d="M33.4442 189.239C26.5455 190.478 22.9555 191.666 17.0113 194.585C16.5071 204.76 16.7034 210.769 19.8259 223.24C32.543 223.596 38.5651 221.497 47.6554 214.337C44.2197 204.179 41.4265 198.63 33.4442 189.239Z" fill="#2B2A29" stroke="#2B2A29"/>
</g>
<g filter="url(#filter10_d_45_98)">
<path d="M907.53 115.332C900.145 96.0391 894.913 90.5435 879.427 110.743C868.649 131.409 865.469 143.428 874.453 167.086C879.143 180.396 883.189 181.025 893.009 169.537C907.198 153.935 910.619 142.221 907.53 115.332Z" fill="url(#paint10_radial_45_98)" stroke="#1D69C6"/>
<path d="M907.229 86.4403C900.557 84.2954 896.829 83.6591 890.21 83.4455C884.988 92.1936 882.34 97.5907 879.243 110.068C890.304 116.353 896.607 117.326 907.994 115.273C909.73 104.69 909.868 98.4797 907.229 86.4403Z" fill="#2B2A29" stroke="#2B2A29"/>
</g>
<g filter="url(#filter11_d_45_98)">
<path d="M1096.58 120.421C1077.58 112.331 1069.99 112.277 1073.76 137.449C1081.14 159.557 1087.58 170.194 1110.83 180.166C1123.67 186.038 1126.93 183.564 1125.49 168.52C1124.12 147.475 1118.07 136.877 1096.58 120.421Z" fill="url(#paint11_radial_45_98)" stroke="#D60E1E"/>
<path d="M1075.59 100.567C1069.41 103.877 1066.37 106.116 1061.61 110.729C1064.28 120.563 1066.32 126.216 1073.15 137.112C1085.35 133.521 1090.43 129.663 1096.86 120.046C1090.46 111.446 1086.09 107.032 1075.59 100.567Z" fill="#2B2A29" stroke="#2B2A29"/>
</g>
<g filter="url(#filter12_d_45_98)">
<path d="M1004.79 122.727C990.714 107.605 983.805 104.47 977.013 129C974.762 152.199 976.315 164.534 993.507 183.103C1002.84 193.687 1006.83 192.754 1011.63 178.425C1018.94 158.643 1017.73 146.501 1004.79 122.727Z" fill="url(#paint12_radial_45_98)" stroke="#F3DC7E"/>
<path d="M993.687 96.0517C986.696 96.5627 983.002 97.3692 976.785 99.6505C975.22 109.718 974.787 115.714 976.589 128.443C989.199 130.127 995.408 128.668 1005.2 122.498C1002.84 112.036 1000.64 106.226 993.687 96.0517Z" fill="#2B2A29" stroke="#2B2A29"/>
</g>
<g filter="url(#filter13_d_45_98)">
<path d="M1264.29 133.762C1263.95 113.107 1260.91 106.153 1239.45 119.838C1222.25 135.572 1215.15 145.778 1215.5 171.081C1215.36 185.193 1218.95 187.168 1232.1 179.732C1250.77 169.923 1257.99 160.086 1264.29 133.762Z" fill="url(#paint13_radial_45_98)" stroke="#D60E1E"/>
<path d="M1273.89 106.51C1268.35 102.212 1265.07 100.339 1258.92 97.875C1251.02 104.309 1246.69 108.475 1239.51 119.141C1247.75 128.83 1253.34 131.9 1264.74 133.865C1270 124.514 1272.25 118.726 1273.89 106.51Z" fill="#2B2A29" stroke="#2B2A29"/>
</g>
<path d="M3.8147e-06 210.785C20.641 221.405 27.0141 220.737 31.5 210.785C25.6962 171.25 35.9945 153.287 98 134.785C209.355 101.157 258.039 88.7037 246.5 112.285C238.908 130.078 256.221 129.352 333 105.285C437.968 105.584 462.64 110.817 452 128.285C466.985 114.826 495.877 110.639 603 112.285C662.198 119.051 671.631 115.111 686 107.285C700.54 99.9526 714.981 107.694 738.5 117.285C813.46 114.898 869.79 118.675 900 100.285C912.144 87.8736 942.076 98.249 989.5 112.285C998.902 118.673 1013.73 119.827 1078 112.285C1170.53 95.0792 1239.77 72.5622 1255.5 112.285C1261.04 131.244 1275.78 140.311 1344.5 150.785C1375.65 135.668 1384.97 115.191 1403 65.7846C1425.51 39.2687 1432.59 34.8559 1439.5 37.7846" stroke="#2B2A29" stroke-width="4"/>
<path d="M1438.5 57.7845L1407 71.7845C1385.91 104.416 1372.23 120.841 1340.5 142.785C1303.8 130.46 1284.52 127.473 1250.5 123.285C1186.69 77.0591 1146 83.2968 1071 110.285C1067.05 129.104 1041.84 123.123 985.5 104.285C986.356 100.575 995.27 97.0461 897.5 110.285C829.55 90.3779 792.141 83.0728 736 129.285C709.511 100.366 699.065 97.2248 681.5 94.7845C651.906 128.538 634.445 131.636 601.5 104.285C558.07 99.502 525.147 106.107 449 136.785C416.468 100.183 390.845 89.9297 328.5 94.7845C309.359 123.567 290.076 131.295 232 121.785C189.677 109.043 163.891 104.092 86 129.285C93.52 138.329 34.6742 200.016 29 195.785C23.3258 191.553 8.5 248.285 6 235.285" stroke="#2B2A29" stroke-width="4"/>
<defs>
<filter id="filter0_d_45_98" x="365.775" y="56.8958" width="154.171" height="201.318" filterUnits="userSpaceOnUse" color-interpolation-filters="sRGB">
<feFlood flood-opacity="0" result="BackgroundImageFix"/>
<feColorMatrix in="SourceAlpha" type="matrix" values="0 0 0 0 0 0 0 0 0 0 0 0 0 0 0 0 0 0 127 0" result="hardAlpha"/>
<feOffset/>
<feGaussianBlur stdDeviation="26.9"/>
<feComposite in2="hardAlpha" operator="out"/>
<feColorMatrix type="matrix" values="0 0 0 0 0.776471 0 0 0 0 0.94902 0 0 0 0 0.882353 0 0 0 1 0"/>
<feBlend mode="normal" in2="BackgroundImageFix" result="effect1_dropShadow_45_98"/>
<feBlend mode="normal" in="SourceGraphic" in2="effect1_dropShadow_45_98" result="shape"/>
</filter>
<filter id="filter1_d_45_98" x="158.775" y="41.8958" width="154.171" height="201.318" filterUnits="userSpaceOnUse" color-interpolation-filters="sRGB">
<feFlood flood-opacity="0" result="BackgroundImageFix"/>
<feColorMatrix in="SourceAlpha" type="matrix" values="0 0 0 0 0 0 0 0 0 0 0 0 0 0 0 0 0 0 127 0" result="hardAlpha"/>
<feOffset/>
<feGaussianBlur stdDeviation="26.9"/>
<feComposite in2="hardAlpha" operator="out"/>
<feColorMatrix type="matrix" values="0 0 0 0 0.870588 0 0 0 0 0.788235 0 0 0 0 0.741176 0 0 0 1 0"/>
<feBlend mode="normal" in2="BackgroundImageFix" result="effect1_dropShadow_45_98"/>
<feBlend mode="normal" in="SourceGraphic" in2="effect1_dropShadow_45_98" result="shape"/>
</filter>
<filter id="filter2_d_45_98" x="266.711" y="33.1363" width="148.642" height="202.81" filterUnits="userSpaceOnUse" color-interpolation-filters="sRGB">
<feFlood flood-opacity="0" result="BackgroundImageFix"/>
<feColorMatrix in="SourceAlpha" type="matrix" values="0 0 0 0 0 0 0 0 0 0 0 0 0 0 0 0 0 0 127 0" result="hardAlpha"/>
<feOffset/>
<feGaussianBlur stdDeviation="26.9"/>
<feComposite in2="hardAlpha" operator="out"/>
<feColorMatrix type="matrix" values="0 0 0 0 0.0117647 0 0 0 0 0.498039 0 0 0 0 0.796078 0 0 0 1 0"/>
<feBlend mode="normal" in2="BackgroundImageFix" result="effect1_dropShadow_45_98"/>
<feBlend mode="normal" in="SourceGraphic" in2="effect1_dropShadow_45_98" result="shape"/>
</filter>
<filter id="filter3_d_45_98" x="498.541" y="46.1903" width="172.849" height="191.211" filterUnits="userSpaceOnUse" color-interpolation-filters="sRGB">
<feFlood flood-opacity="0" result="BackgroundImageFix"/>
<feColorMatrix in="SourceAlpha" type="matrix" values="0 0 0 0 0 0 0 0 0 0 0 0 0 0 0 0 0 0 127 0" result="hardAlpha"/>
<feOffset/>
<feGaussianBlur stdDeviation="26.9"/>
<feComposite in2="hardAlpha" operator="out"/>
<feColorMatrix type="matrix" values="0 0 0 0 0.913725 0 0 0 0 0.239216 0 0 0 0 0.294118 0 0 0 1 0"/>
<feBlend mode="normal" in2="BackgroundImageFix" result="effect1_dropShadow_45_98"/>
<feBlend mode="normal" in="SourceGraphic" in2="effect1_dropShadow_45_98" result="shape"/>
</filter>
<filter id="filter4_d_45_98" x="603.535" y="36.7321" width="149.293" height="202.794" filterUnits="userSpaceOnUse" color-interpolation-filters="sRGB">
<feFlood flood-opacity="0" result="BackgroundImageFix"/>
<feColorMatrix in="SourceAlpha" type="matrix" values="0 0 0 0 0 0 0 0 0 0 0 0 0 0 0 0 0 0 127 0" result="hardAlpha"/>
<feOffset/>
<feGaussianBlur stdDeviation="26.9"/>
<feComposite in2="hardAlpha" operator="out"/>
<feColorMatrix type="matrix" values="0 0 0 0 0.945098 0 0 0 0 0.831373 0 0 0 0 0.337255 0 0 0 1 0"/>
<feBlend mode="normal" in2="BackgroundImageFix" result="effect1_dropShadow_45_98"/>
<feBlend mode="normal" in="SourceGraphic" in2="effect1_dropShadow_45_98" result="shape"/>
</filter>
<filter id="filter5_d_45_98" x="669.31" y="44.5012" width="167.029" height="194.782" filterUnits="userSpaceOnUse" color-interpolation-filters="sRGB">
<feFlood flood-opacity="0" result="BackgroundImageFix"/>
<feColorMatrix in="SourceAlpha" type="matrix" values="0 0 0 0 0 0 0 0 0 0 0 0 0 0 0 0 0 0 127 0" result="hardAlpha"/>
<feOffset/>
<feGaussianBlur stdDeviation="26.9"/>
<feComposite in2="hardAlpha" operator="out"/>
<feColorMatrix type="matrix" values="0 0 0 0 0.898039 0 0 0 0 0.137255 0 0 0 0 0.301961 0 0 0 1 0"/>
<feBlend mode="normal" in2="BackgroundImageFix" result="effect1_dropShadow_45_98"/>
<feBlend mode="normal" in="SourceGraphic" in2="effect1_dropShadow_45_98" result="shape"/>
</filter>
<filter id="filter6_d_45_98" x="1275.5" y="80.8959" width="154.171" height="201.318" filterUnits="userSpaceOnUse" color-interpolation-filters="sRGB">
<feFlood flood-opacity="0" result="BackgroundImageFix"/>
<feColorMatrix in="SourceAlpha" type="matrix" values="0 0 0 0 0 0 0 0 0 0 0 0 0 0 0 0 0 0 127 0" result="hardAlpha"/>
<feOffset/>
<feGaussianBlur stdDeviation="26.9"/>
<feComposite in2="hardAlpha" operator="out"/>
<feColorMatrix type="matrix" values="0 0 0 0 0.776471 0 0 0 0 0.94902 0 0 0 0 0.882353 0 0 0 1 0"/>
<feBlend mode="normal" in2="BackgroundImageFix" result="effect1_dropShadow_45_98"/>
<feBlend mode="normal" in="SourceGraphic" in2="effect1_dropShadow_45_98" result="shape"/>
</filter>
<filter id="filter7_d_45_98" x="1340.5" y="0.895832" width="154.171" height="201.318" filterUnits="userSpaceOnUse" color-interpolation-filters="sRGB">
<feFlood flood-opacity="0" result="BackgroundImageFix"/>
<feColorMatrix in="SourceAlpha" type="matrix" values="0 0 0 0 0 0 0 0 0 0 0 0 0 0 0 0 0 0 127 0" result="hardAlpha"/>
<feOffset/>
<feGaussianBlur stdDeviation="26.9"/>
<feComposite in2="hardAlpha" operator="out"/>
<feColorMatrix type="matrix" values="0 0 0 0 0.870588 0 0 0 0 0.788235 0 0 0 0 0.741176 0 0 0 1 0"/>
<feBlend mode="normal" in2="BackgroundImageFix" result="effect1_dropShadow_45_98"/>
<feBlend mode="normal" in="SourceGraphic" in2="effect1_dropShadow_45_98" result="shape"/>
</filter>
<filter id="filter8_d_45_98" x="29.4992" y="69.8958" width="154.171" height="201.318" filterUnits="userSpaceOnUse" color-interpolation-filters="sRGB">
<feFlood flood-opacity="0" result="BackgroundImageFix"/>
<feColorMatrix in="SourceAlpha" type="matrix" values="0 0 0 0 0 0 0 0 0 0 0 0 0 0 0 0 0 0 127 0" result="hardAlpha"/>
<feOffset/>
<feGaussianBlur stdDeviation="26.9"/>
<feComposite in2="hardAlpha" operator="out"/>
<feColorMatrix type="matrix" values="0 0 0 0 0.776471 0 0 0 0 0.94902 0 0 0 0 0.882353 0 0 0 1 0"/>
<feBlend mode="normal" in2="BackgroundImageFix" result="effect1_dropShadow_45_98"/>
<feBlend mode="normal" in="SourceGraphic" in2="effect1_dropShadow_45_98" result="shape"/>
</filter>
<filter id="filter9_d_45_98" x="-37.5008" y="134.896" width="154.171" height="201.318" filterUnits="userSpaceOnUse" color-interpolation-filters="sRGB">
<feFlood flood-opacity="0" result="BackgroundImageFix"/>
<feColorMatrix in="SourceAlpha" type="matrix" values="0 0 0 0 0 0 0 0 0 0 0 0 0 0 0 0 0 0 127 0" result="hardAlpha"/>
<feOffset/>
<feGaussianBlur stdDeviation="26.9"/>
<feComposite in2="hardAlpha" operator="out"/>
<feColorMatrix type="matrix" values="0 0 0 0 0.870588 0 0 0 0 0.788235 0 0 0 0 0.741176 0 0 0 1 0"/>
<feBlend mode="normal" in2="BackgroundImageFix" result="effect1_dropShadow_45_98"/>
<feBlend mode="normal" in="SourceGraphic" in2="effect1_dropShadow_45_98" result="shape"/>
</filter>
<filter id="filter10_d_45_98" x="814.919" y="29.1363" width="148.642" height="202.81" filterUnits="userSpaceOnUse" color-interpolation-filters="sRGB">
<feFlood flood-opacity="0" result="BackgroundImageFix"/>
<feColorMatrix in="SourceAlpha" type="matrix" values="0 0 0 0 0 0 0 0 0 0 0 0 0 0 0 0 0 0 127 0" result="hardAlpha"/>
<feOffset/>
<feGaussianBlur stdDeviation="26.9"/>
<feComposite in2="hardAlpha" operator="out"/>
<feColorMatrix type="matrix" values="0 0 0 0 0.0117647 0 0 0 0 0.498039 0 0 0 0 0.796078 0 0 0 1 0"/>
<feBlend mode="normal" in2="BackgroundImageFix" result="effect1_dropShadow_45_98"/>
<feBlend mode="normal" in="SourceGraphic" in2="effect1_dropShadow_45_98" result="shape"/>
</filter>
<filter id="filter11_d_45_98" x="1007.26" y="46.1903" width="172.849" height="191.211" filterUnits="userSpaceOnUse" color-interpolation-filters="sRGB">
<feFlood flood-opacity="0" result="BackgroundImageFix"/>
<feColorMatrix in="SourceAlpha" type="matrix" values="0 0 0 0 0 0 0 0 0 0 0 0 0 0 0 0 0 0 127 0" result="hardAlpha"/>
<feOffset/>
<feGaussianBlur stdDeviation="26.9"/>
<feComposite in2="hardAlpha" operator="out"/>
<feColorMatrix type="matrix" values="0 0 0 0 0.913725 0 0 0 0 0.239216 0 0 0 0 0.294118 0 0 0 1 0"/>
<feBlend mode="normal" in2="BackgroundImageFix" result="effect1_dropShadow_45_98"/>
<feBlend mode="normal" in="SourceGraphic" in2="effect1_dropShadow_45_98" result="shape"/>
</filter>
<filter id="filter12_d_45_98" x="921.114" y="41.7321" width="149.293" height="202.794" filterUnits="userSpaceOnUse" color-interpolation-filters="sRGB">
<feFlood flood-opacity="0" result="BackgroundImageFix"/>
<feColorMatrix in="SourceAlpha" type="matrix" values="0 0 0 0 0 0 0 0 0 0 0 0 0 0 0 0 0 0 127 0" result="hardAlpha"/>
<feOffset/>
<feGaussianBlur stdDeviation="26.9"/>
<feComposite in2="hardAlpha" operator="out"/>
<feColorMatrix type="matrix" values="0 0 0 0 0.945098 0 0 0 0 0.831373 0 0 0 0 0.337255 0 0 0 1 0"/>
<feBlend mode="normal" in2="BackgroundImageFix" result="effect1_dropShadow_45_98"/>
<feBlend mode="normal" in="SourceGraphic" in2="effect1_dropShadow_45_98" result="shape"/>
</filter>
<filter id="filter13_d_45_98" x="1161.19" y="43.5012" width="167.029" height="194.782" filterUnits="userSpaceOnUse" color-interpolation-filters="sRGB">
<feFlood flood-opacity="0" result="BackgroundImageFix"/>
<feColorMatrix in="SourceAlpha" type="matrix" values="0 0 0 0 0 0 0 0 0 0 0 0 0 0 0 0 0 0 127 0" result="hardAlpha"/>
<feOffset/>
<feGaussianBlur stdDeviation="26.9"/>
<feComposite in2="hardAlpha" operator="out"/>
<feColorMatrix type="matrix" values="0 0 0 0 0.898039 0 0 0 0 0.137255 0 0 0 0 0.301961 0 0 0 1 0"/>
<feBlend mode="normal" in2="BackgroundImageFix" result="effect1_dropShadow_45_98"/>
<feBlend mode="normal" in="SourceGraphic" in2="effect1_dropShadow_45_98" result="shape"/>
</filter>
<radialGradient id="paint0_radial_45_98" cx="0" cy="0" r="1" gradientUnits="userSpaceOnUse" gradientTransform="translate(441.073 165.222) rotate(116) scale(40.0263 19.5)">
<stop stop-color="#DEF9F0"/>
<stop offset="0.646868" stop-color="#A8EFD3"/>
</radialGradient>
<radialGradient id="paint1_radial_45_98" cx="0" cy="0" r="1" gradientUnits="userSpaceOnUse" gradientTransform="translate(234.073 150.222) rotate(116) scale(40.0263 19.5)">
<stop stop-color="#F3ECE9"/>
<stop offset="0.597459" stop-color="#E1CFC4"/>
</radialGradient>
<radialGradient id="paint2_radial_45_98" cx="0" cy="0" r="1" gradientUnits="userSpaceOnUse" gradientTransform="translate(341.386 141.827) rotate(88) scale(40.0263 19.5)">
<stop stop-color="#0CD0EB"/>
<stop offset="1" stop-color="#0276C7"/>
</radialGradient>
<radialGradient id="paint3_radial_45_98" cx="0" cy="0" r="1" gradientUnits="userSpaceOnUse" gradientTransform="translate(578.832 149.459) rotate(134) scale(40.0263 19.5)">
<stop stop-color="#F98F99"/>
<stop offset="1" stop-color="#E32030"/>
</radialGradient>
<radialGradient id="paint4_radial_45_98" cx="0" cy="0" r="1" gradientUnits="userSpaceOnUse" gradientTransform="translate(678.014 145.568) rotate(110) scale(40.0263 19.5)">
<stop stop-color="#FBEAA5"/>
<stop offset="1" stop-color="#F1D456"/>
</radialGradient>
<radialGradient id="paint5_radial_45_98" cx="0" cy="0" r="1" gradientUnits="userSpaceOnUse" gradientTransform="translate(758.457 149.523) rotate(68) scale(40.0263 19.5)">
<stop stop-color="#F35BB2"/>
<stop offset="1" stop-color="#E5224C"/>
</radialGradient>
<radialGradient id="paint6_radial_45_98" cx="0" cy="0" r="1" gradientUnits="userSpaceOnUse" gradientTransform="translate(1354.37 189.222) rotate(64) scale(40.0263 19.5)">
<stop stop-color="#DEF9F0"/>
<stop offset="0.646868" stop-color="#A8EFD3"/>
</radialGradient>
<radialGradient id="paint7_radial_45_98" cx="0" cy="0" r="1" gradientUnits="userSpaceOnUse" gradientTransform="translate(1419.37 109.222) rotate(64) scale(40.0263 19.5)">
<stop stop-color="#F3ECE9"/>
<stop offset="0.597459" stop-color="#E1CFC4"/>
</radialGradient>
<radialGradient id="paint8_radial_45_98" cx="0" cy="0" r="1" gradientUnits="userSpaceOnUse" gradientTransform="translate(108.372 178.222) rotate(64) scale(40.0263 19.5)">
<stop stop-color="#DEF9F0"/>
<stop offset="0.646868" stop-color="#A8EFD3"/>
</radialGradient>
<radialGradient id="paint9_radial_45_98" cx="0" cy="0" r="1" gradientUnits="userSpaceOnUse" gradientTransform="translate(41.3716 243.222) rotate(64) scale(40.0263 19.5)">
<stop stop-color="#F3ECE9"/>
<stop offset="0.597459" stop-color="#E1CFC4"/>
</radialGradient>
<radialGradient id="paint10_radial_45_98" cx="0" cy="0" r="1" gradientUnits="userSpaceOnUse" gradientTransform="translate(888.885 137.827) rotate(92) scale(40.0263 19.5)">
<stop stop-color="#0CD0EB"/>
<stop offset="1" stop-color="#0276C7"/>
</radialGradient>
<radialGradient id="paint11_radial_45_98" cx="0" cy="0" r="1" gradientUnits="userSpaceOnUse" gradientTransform="translate(1099.81 149.459) rotate(46) scale(40.0263 19.5)">
<stop stop-color="#F98F99"/>
<stop offset="1" stop-color="#E32030"/>
</radialGradient>
<radialGradient id="paint12_radial_45_98" cx="0" cy="0" r="1" gradientUnits="userSpaceOnUse" gradientTransform="translate(995.928 150.568) rotate(70) scale(40.0263 19.5)">
<stop stop-color="#FBEAA5"/>
<stop offset="1" stop-color="#F1D456"/>
</radialGradient>
<radialGradient id="paint13_radial_45_98" cx="0" cy="0" r="1" gradientUnits="userSpaceOnUse" gradientTransform="translate(1239.07 148.523) rotate(112) scale(40.0263 19.5)">
<stop stop-color="#F35BB2"/>
<stop offset="1" stop-color="#E5224C"/>
</radialGradient>
</defs>
</svg>
